<svg height="30" viewBox="0 0 30 30" width="30" xmlns="http://www.w3.org/2000/svg"><g fill="#aaa"><path d="m10.8257205 22.7435252.1174872.317593c.1117092.3155956.2060842.6251989.283125.9288099.1027211.4048146.1540816.8202822.1540816 1.2464028 0 .5965689-.097585 1.2250969-.2927551 1.8855839-.19517.660487-.4879251 1.2464029-.8782653 1.7577476-.30816322.4261207-.73445572.8522413-1.27887748 1.2783619-.54442175.4261207-1.19670065.7244051-1.95683668.8948534l-.55469387-.9268124.25392653-.0856502c.33199455-.1261318.6376925-.299989.91709385-.5215717.34925169-.2769784.64714284-.5912424.89367345-.9427919.2465306-.3515496.4262925-.7297316.5392857-1.1345462.11299319-.4048147.15921768-.7989762.13867346-1.1824848h-1.75653056l-.15408163-.2574479c-.09587302-.1728156-.17804989-.3479985-.24653061-.5255488-.10272108-.2663254-.15408163-.5486303-.15408163-.8469148 0-.2556724.02568027-.4953652.07704082-.7190786.05136054-.2237133.11812925-.4314471.20030611-.6232014.08217687-.1917543.17462585-.3728556.27734694-.5433038zm-6.33960306 0 .11748724.317593c.11170918.3155956.20608418.6251989.28312499.9288099.10272109.4048146.15408163.8202822.15408163 1.2464028 0 .5965689-.09758503 1.2250969-.29275509 1.8855839-.19517007.660487-.48792516 1.2464029-.87826529 1.7577476-.30816325.4261207-.73445576.8522413-1.27887752 1.2783619-.54442175.4261207-1.19670065.7244051-1.95683668.8948534l-.55469386-.9268124.25392652-.0856502c.33199455-.1261318.6376925-.299989.91709385-.5215717.3492517-.2769784.64714285-.5912424.89367345-.9427919.24653061-.3515496.42629251-.7297316.5392857-1.1345462.1129932-.4048147.15921769-.7989762.13867347-1.1824848h-1.75653057l-.15408163-.2574479c-.09587301-.1728156-.17804988-.3479985-.2465306-.5255488-.10272109-.2663254-.15408163-.5486303-.15408163-.8469148 0-.2556724.02568027-.4953652.07704081-.7190786.05136054-.2237133.11812925-.4314471.20030612-.6232014s.17462584-.3728556.27734693-.5433038z"/><path d="m26.5467626 28.6510791-19.6411012-25.89928054h-1.83371895l19.64110115 25.89928054z"/><path d="m29.3827399.08165468.5584317.92681239-.2556376.08565025c-.3342317.12613171-.6419896.29998893-.9232737.52157167-.3516052.27697841-.6515037.59124239-.8996955.94279192-.2481919.35154953-.4343358.7297316-.5584317 1.13454621s-.1654613.7989762-.1240959 1.18248478h1.799391l.1182789.18176708c.1124619.18775941.2074729.39349578.2850328.61720912.1034133.29828445.15512.56460985.15512.79897621 0 .36220254-.0517067.70842556-.15512 1.03866906-.1034132.3302435-.2378505.62320144-.4033117.87887382h-3.4746861l-.13296-.33589611c-.2481918-.66787889-.3900157-1.31227765-.4254717-1.9331963 0-1.21444383.2223385-2.23180687.6670156-3.0520891.4446771-.82028224.9927675-1.48076923 1.6442711-1.98146099.6515037-.50069175 1.3598846-.83626176 2.1251428-1.00671001zm-6.5210688 0 .5584317.92681239-.2556376.08565025c-.3342318.12613171-.6419897.29998893-.9232738.52157167-.3516051.27697841-.6515036.59124239-.8996955.94279192-.2481918.35154953-.4343357.7297316-.5584317 1.13454621-.1240959.40481461-.1654612.7989762-.1240959 1.18248478h1.799391l.1182789.18176708c.112462.18775941.2074729.39349578.2850329.61720912.1034133.29828445.1551199.56460985.1551199.79897621 0 .36220254-.0517066.70842556-.1551199 1.03866906s-.2378506.62320144-.4033118.87887382h-3.4746861l-.1329599-.33589611c-.2481919-.66787889-.3900158-1.31227765-.4254718-1.9331963 0-1.21444383.2223386-2.23180687.6670157-3.0520891.444677-.82028224.9927674-1.48076923 1.6442711-1.98146099.6515036-.50069175 1.3598845-.83626176 2.1251428-1.00671001z"/></g></svg>